<svg xmlns="http://www.w3.org/2000/svg" aria-hidden="true" style="position:absolute;width:0;height:0;overflow:hidden"><defs>
<symbol id="icon-currency" viewBox="0 0 32 32"><path d="M5.053 0A5.053 5.053 0 0 0 0 5.053v21.895a5.053 5.053 0 0 0 5.053 5.053h21.895a5.053 5.053 0 0 0 5.053-5.053V5.053A5.053 5.053 0 0 0 26.948 0H5.053zm8.212 13.136c0 .995.765 1.635 3.144 2.253s4.925 1.635 4.925 4.61c0 2.148-1.624 3.332-3.667 3.72v2.253h-3.143v-2.274c-2.012-.43-3.73-1.718-3.856-4.013h2.305c.115 1.236.964 2.2 3.123 2.2 2.316 0 2.829-1.153 2.829-1.876 0-.974-.524-1.896-3.143-2.525-2.923-.702-4.925-1.907-4.925-4.327 0-2.022 1.635-3.342 3.667-3.783V7.111h3.143v2.295c2.19.534 3.29 2.19 3.363 3.992h-2.316c-.063-1.31-.754-2.2-2.619-2.2-1.771 0-2.829.796-2.829 1.938z"/></symbol>
<symbol id="icon-statistics" viewBox="0 0 32 32"><path d="M3.556 0h24.889a3.556 3.556 0 0 1 3.556 3.556v24.889a3.556 3.556 0 0 1-3.556 3.556H3.556A3.556 3.556 0 0 1 0 28.445V3.556A3.556 3.556 0 0 1 3.556 0zm22.626 13.63c1.244 0 2.263-1.067 2.263-2.37s-1.018-2.37-2.263-2.37c-1.244 0-2.263 1.067-2.263 2.37 0 .213.023.415.079.604l-4.016 4.219c-.181-.059-.385-.083-.588-.083s-.407.024-.588.083l-2.885-3.022c.057-.19.079-.403.079-.616 0-1.304-1.018-2.37-2.263-2.37s-2.263 1.067-2.263 2.37c0 .213.023.427.079.616l-5.159 5.393a1.848 1.848 0 0 0-.577-.083c-1.244 0-2.263 1.067-2.263 2.37s1.018 2.37 2.263 2.37 2.263-1.067 2.263-2.37a2.12 2.12 0 0 0-.079-.604l5.147-5.404c.181.059.385.083.588.083s.407-.024.588-.083l2.885 3.022c-.057.19-.079.403-.079.616 0 1.304 1.018 2.37 2.263 2.37s2.263-1.067 2.263-2.37c0-.213-.023-.427-.079-.616l4.027-4.207c.181.059.373.083.577.083z"/></symbol>
<symbol id="icon-home" viewBox="0 0 32 32"><path d="M3.556 0A3.556 3.556 0 0 0 0 3.556v24.889a3.556 3.556 0 0 0 3.556 3.556h24.889a3.556 3.556 0 0 0 3.556-3.556V3.556A3.556 3.556 0 0 0 28.445 0H3.556zm10.311 17.987v6.902H8.534v-9.203h-3.2L16.001 5.333l10.667 10.353h-3.2v9.203h-5.333v-6.902h-4.267z"/></symbol></defs></svg>